<?xml version="1.0" encoding="UTF-8"?><svg id="a" xmlns="http://www.w3.org/2000/svg" viewBox="0 0 50.7437 60.24094"><g><path d="M35.40775,2.07431c-.25447-.10565-.50768-.21355-.76314-.31738-.00428-.00212-.00856-.00334-.01284-.00519-.57547-.21928-1.15397-.43018-1.74242-.6138,0-.00003-.00016-.00007-.00031-.00011-.00428-.00122-.00917-.00245-.01284-.00398-.59282-.18536-1.19552-.33916-1.79899-.48674-.00306-.00059-.00611-.00155-.01039-.00245-.61662-.13464-1.23389-.26116-1.85892-.35588-.62947-.09687-1.26504-.16137-1.89988-.2174-.00122-.00029-.00367-.00029-.00489-.00029-1.86768-.13949-3.75165-.07386-5.60462,.19836-1.69706,2.38054-3.44398,4.97841-5.13033,8.05665-2.64271,4.82373-4.6225,9.8399-8.03341,14.22538-2.24006,2.88017-5.09079,4.997-8.11378,6.90395,.45106,2.17126,1.26927,4.25295,2.32549,6.19889h-.00031c.23762,.43628,.48583,.86692,.74525,1.29123,.00199,.00308,.00367,.00617,.00566,.00925,.14609,.23901,.2968,.47577,.44956,.71153,9.35167-5.79553,19.55304-9.27044,25.73992-17.19983-.00014,.00016-.00027,.00032-.00041,.00048,1.58988-2.01995,2.87353-4.27489,3.82803-6.66115,1.4426-3.63086,2.17418-7.50986,2.71579-11.35846-.27143-.12917-.54598-.25376-.8222-.37305Z" style="fill:#0060c7;"/><path d="M49.40526,17.3003c.0023-.00092,.00459-.00185,.00673-.00277-.31555-.93303-.68577-1.84585-1.10434-2.73668-.01521-.0308-.02866-.06258-.04341-.09356-.00062-.00063-.00062-.0009-.00062-.0009l-.00091,.00015c-1.42325-2.9756-3.43071-5.66307-5.86889-7.88352-.00107-.00088-.00183-.0018-.0029-.00267-.44977-.40974-.92033-.79657-1.3948-1.17744-.0006-.00059-.00122-.00149-.00183-.00182-.48188-.37082-.97089-.73216-1.47399-1.07411-.0003-.00017-.0006-.00038-.00091-.00055-.00183-.00122-.00428-.00245-.00611-.00399-.00336-.00233-.00703-.00447-.0104-.0068,.00061,.00034,.00122,.00065,.00183,.00099-.50127-.33907-1.01879-.65189-1.53911-.96036-.00367-.00149-.00672-.00334-.01039-.0052-.56604-.31802-1.13796-.62562-1.72524-.90371-.63276,4.47619-1.97991,9.01626-3.95827,13.12021-3.20828,6.78802-8.88014,10.95918-15.02103,14.5529-4.3189,2.52747-9.0121,4.66315-13.30403,7.54585,.30264,.46708,.6174,.92815,.94364,1.38325,7.09974,4.11612,13.33661,7.0439,17.87102,10.65182,3.81053-15.52587,12.86837-19.48561,26.52996-25.0152,.52516-.21458,.98743-.45843,1.39516-.73007-.12883-2.31425-.57158-4.54565-1.28117-6.65583Z" style="fill:#0382e2;"/><g><path d="M23.55086,45.44714c-.47993,1.45638-.78956,2.8847-.78956,4.25425,2.58333,2.05549,4.61389,4.33205,5.93662,7.17487,5.16385-5.13009,9.6285-9.90072,14.30999-15.15171,0,0,0,.00002-.00016,.00002,4.38078-4.93441,8.25606-10.82364,7.67867-17.76844-3.39098,1.5317-6.95335,2.88195-10.25132,4.45709-7.50317,3.5836-14.03391,8.11256-16.88425,17.03392Z" style="fill:#00c1d6;"/><path d="M8.53476,22.55148c3.41091-4.38548,5.39069-9.40165,8.0334-14.22538,1.68636-3.07824,3.43327-5.67611,5.13033-8.05665C8.9002,2.11681-.55542,13.48762,.02537,26.40996c0,.00187,.00015,.00377,.00031,.00564,.05105,1.02182,.18513,2.03909,.39531,3.03984,3.02298-1.90695,5.87372-4.02378,8.11378-6.90395Z" style="fill:#004697;"/><path d="M22.7613,49.7014c-4.53441-3.60792-10.77128-6.5357-17.87102-10.65182,1.95445,2.72763,4.30484,5.24976,6.66495,7.6647,1.64077,1.6767,3.35062,3.38995,5.01036,5.03069h-.00015c3.52849,3.48856,6.87673,6.70237,8.76014,8.49598,1.11182-1.10347,2.25783-2.24633,3.37234-3.36468-1.32273-2.84282-3.3533-5.11938-5.93662-7.17487Z" style="fill:#b4ce00;"/></g></g><g><path d="M44.30523,34.49171l-4.89324-4.89324v3.67473h-6.60439c-3.42825,0-6.21732-2.78908-6.21732-6.21732,0-4.77204-3.8823-8.65434-8.65434-8.65434h-6.60439v-3.6749l-4.89308,4.89341,4.89308,4.89341v-3.67491h6.60439c3.42825,0,6.21732,2.78907,6.21732,6.21732,0,4.77204,3.88229,8.65433,8.65434,8.65433h6.60439v3.67473l4.89324-4.89324v.00002Z" style="fill:#b4ce00;"/><path d="M44.30523,19.62006l-4.89324-4.89325v3.67473h-6.60439c-4.77205,0-8.65434,3.8823-8.65434,8.65434,0,3.42824-2.78907,6.21732-6.21732,6.21732h-6.60439v-3.67491l-4.89308,4.89341,4.89308,4.89341v-3.67491h6.60439c4.77204,0,8.65434-3.88229,8.65434-8.65433,0-3.42825,2.78907-6.21732,6.21732-6.21732h6.60439v3.67473l4.89324-4.89324v.00002Z" style="fill:#fff;"/></g></svg>