<?xml version="1.0" encoding="UTF-8"?><svg id="a" xmlns="http://www.w3.org/2000/svg" viewBox="0 0 300.90748 23.15204"><g><path d="M145.36853,18.55666V1.53571h4.57024c1.11917,0,2.08284,.2141,2.89102,.64135,.80818,.42772,1.43771,1.02606,1.88859,1.79549s.67632,1.67497,.67632,2.71615v6.69183c0,1.04166-.22544,1.95098-.67632,2.72797s-1.08041,1.38005-1.88859,1.8073-1.77185,.64087-2.89102,.64087h-4.57024Zm2.30828-2.0748h2.26196c.97927,0,1.7487-.27601,2.30828-.82803s.83937-1.30916,.83937-2.2733V6.68869c0-.94808-.27979-1.69813-.83937-2.25015-.55958-.55155-1.32901-.82756-2.30828-.82756h-2.26196v12.87088Z" style="fill:#fff;"/><path d="M166.58636,6.65371c-.87057-.76943-2.06015-1.15414-3.56734-1.15414-1.36824,0-2.51056,.33462-3.42744,1.00243-.91736,.66876-1.44575,1.57052-1.58564,2.70481h2.28512c.07751-.52839,.36108-.94808,.85072-1.25906,.48963-.31051,1.09979-.466,1.83046-.466,.82378,0,1.46512,.20606,1.92357,.61772,.45844,.41213,.68766,.99109,.68766,1.73688v1.2359h-3.77718c-1.36776,0-2.44817,.34218-3.24076,1.02559-.79258,.68435-1.18911,1.63243-1.18911,2.84518,0,1.18155,.38471,2.11734,1.15414,2.80926s1.83046,1.03787,3.18263,1.03787c1.18108,0,2.13341-.27601,2.85605-.82803,.60885-.46476,.9453-1.07255,1.04142-1.8073h.01961v2.40186h2.26196V9.76639c0-1.30538-.43576-2.34325-1.30585-3.11268Zm-1.91222,9.62964c-.6059,.47451-1.38336,.71082-2.33144,.71082-.83937,0-1.49206-.19756-1.95854-.59456-.46648-.39606-.69948-.93579-.69948-1.62014,0-.63709,.19425-1.14658,.58274-1.52751,.38849-.37999,.91736-.57093,1.58564-.57093h3.73039v1.77233c0,.7458-.30295,1.35642-.90932,1.82999Z" style="fill:#fff;"/><path d="M176.89138,18.55666c-1.13476,0-2.01667-.3072-2.6462-.92066-.62953-.61441-.9443-1.47269-.9443-2.57673V7.83148h-3.59097v-2.09891h3.59097V2.11892h2.28465v3.61366h5.08303v2.09891h-5.08303v7.22779c0,.93295,.45088,1.39896,1.35264,1.39896h3.49739v2.09844h-3.54418Z" style="fill:#fff;"/><path d="M191.76711,6.65371c-.87151-.76943-2.06063-1.15414-3.56734-1.15414-1.36824,0-2.51056,.33462-3.42744,1.00243-.91736,.66876-1.44575,1.57052-1.58564,2.70481h2.28512c.07751-.52839,.36108-.94808,.85072-1.25906,.48963-.31051,1.09979-.466,1.83046-.466,.82378,0,1.46465,.20606,1.92404,.61772,.4575,.41213,.68814,.99109,.68814,1.73688v1.2359h-3.77813c-1.36776,0-2.44817,.34218-3.24076,1.02559-.79258,.68435-1.18911,1.63243-1.18911,2.84518,0,1.18155,.38471,2.11734,1.15414,2.80926s1.83046,1.03787,3.18263,1.03787c1.18108,0,2.13388-.27601,2.85605-.82803,.60803-.46476,.9456-1.07255,1.04213-1.8073h.01843v2.40186h2.26291V9.76639c0-1.30538-.4367-2.34325-1.30632-3.11268Zm-1.91128,9.62964c-.60684,.47451-1.38431,.71082-2.33238,.71082-.83937,0-1.49206-.19756-1.95854-.59456-.46648-.39606-.69948-.93579-.69948-1.62014,0-.63709,.19425-1.14658,.58274-1.52751,.38849-.37999,.91736-.57093,1.58564-.57093h3.73134v1.77233c0,.7458-.30437,1.35642-.90932,1.82999Z" style="fill:#fff;"/><path d="M202.93513,18.55666V1.53571h9.88533V3.61098h-7.60068v5.05988h6.78494v2.05165h-6.78494v5.75935h7.60068v2.0748h-9.88533Z" style="fill:#fff;"/><path d="M214.33663,18.55666l4.54661-6.59873-4.24413-6.22536h2.68165l2.40186,3.75403c.1087,.17156,.21362,.36155,.31477,.5714,.1002,.20984,.18243,.38471,.24482,.52461,.04632-.1399,.12005-.31477,.22119-.52461s.20606-.39984,.31477-.5714l2.42454-3.75403h2.65802l-4.24319,6.24899,4.52298,6.5751h-2.70433l-2.6117-4.03334c-.1087-.17109-.21362-.36959-.31477-.59456-.10114-.22591-.18999-.40834-.2675-.54824-.06239,.1399-.15218,.32233-.26845,.54824-.11626,.22497-.23726,.42347-.36108,.59456l-2.63533,4.03334h-2.6807Z" style="fill:#fff;"/><path d="M232.94276,18.79014c-1.04166,0-1.95476-.1985-2.74025-.59456-.78455-.397-1.39139-.96415-1.81864-1.70238s-.64087-1.61258-.64087-2.62304v-3.45013c0-1.02653,.21362-1.90466,.64087-2.63533s1.03409-1.29404,1.81864-1.69056c.7855-.39653,1.6986-.59456,2.74025-.59456,1.50766,0,2.71946,.40031,3.63729,1.20093,.91688,.80062,1.39896,1.89237,1.44527,3.27573h-2.30828c-.04632-.77699-.31098-1.37911-.79306-1.80683-.48207-.42725-1.14185-.64135-1.98123-.64135-.88664,0-1.5899,.24907-2.11072,.74627-.52083,.49767-.78077,1.21227-.78077,2.1457v3.45013c0,.91688,.25994,1.62865,.78077,2.13341,.52083,.5057,1.22409,.75808,2.11072,.75808,.83937,0,1.49915-.21741,1.98123-.65316,.48207-.43481,.74674-1.03315,.79306-1.79501h2.30828c-.04632,1.38289-.52839,2.47559-1.44527,3.27526-.91783,.80062-2.12963,1.2014-3.63729,1.2014Z" style="fill:#fff;"/><path d="M240.49712,18.55666V1.53571h2.30828V5.73258l-.02363,2.44865h.53595l-.53595,.53595c0-1.02559,.3072-1.81864,.92066-2.37823,.61441-.55958,1.45-.83937,2.50678-.83937,1.29025,0,2.31584,.40031,3.07771,1.20093s1.1428,1.89237,1.1428,3.27573v8.58043h-2.30828V10.23287c0-.88616-.23347-1.57005-.69948-2.05165-.46695-.48207-1.10404-.72311-1.91222-.72311-.83937,0-1.5001,.26041-1.98217,.78124s-.72216,1.24725-.72216,2.18067v8.13664h-2.30828Z" style="fill:#fff;"/><path d="M261.714,6.65371c-.87057-.76943-2.05968-1.15414-3.56734-1.15414-1.36776,0-2.51056,.33462-3.42744,1.00243-.91688,.66876-1.44527,1.57052-1.58517,2.70481h2.28465c.07751-.52839,.36203-.94808,.85166-1.25906,.48963-.31051,1.09932-.466,1.82999-.466,.82331,0,1.46512,.20606,1.92357,.61772,.45844,.41213,.68814,.99109,.68814,1.73688v1.2359h-3.77718c-1.36871,0-2.44817,.34218-3.24123,1.02559-.79306,.68435-1.18911,1.63243-1.18911,2.84518,0,1.18155,.38471,2.11734,1.15414,2.80926s1.82999,1.03787,3.18263,1.03787c1.18155,0,2.13341-.27601,2.85652-.82803,.60803-.46476,.945-1.07255,1.0413-1.8073h.01926v2.40186h2.26196V9.76639c0-1.30538-.43576-2.34325-1.30632-3.11268Zm-1.91128,9.62964c-.60684,.47451-1.38383,.71082-2.33191,.71082-.83937,0-1.49254-.19756-1.95854-.59456-.466-.39606-.69948-.93579-.69948-1.62014,0-.63709,.19377-1.14658,.58321-1.52751,.38849-.37999,.91688-.57093,1.58517-.57093h3.73087v1.77233c0,.7458-.30342,1.35642-.90932,1.82999Z" style="fill:#fff;"/><path d="M274.46814,6.7005c-.76186-.80062-1.78745-1.20093-3.07771-1.20093-1.05678,0-1.89237,.27979-2.50678,.83937-.50015,.45626-.78567,1.0761-.87813,1.84227h-.04254v-2.44865h-2.28465v12.82409h2.30828V10.42003c0-.93343,.24009-1.65228,.72216-2.15751,.48207-.50476,1.1428-.75761,1.98217-.75761,.80818,0,1.44527,.233,1.91222,.69948,.466,.46648,.69948,1.14232,.69948,2.02849v8.32379h2.30828V9.97624c0-1.38336-.38093-2.47511-1.1428-3.27573Z" style="fill:#fff;"/><path d="M285.84601,5.73258l.02363,2.44865h-.03574c-.0807-.76246-.37065-1.38673-.89721-1.85409-.62197-.55155-1.45284-.82756-2.49449-.82756-1.32145,0-2.3631,.4315-3.12402,1.29404-.76186,.86301-1.1428,2.03274-1.1428,3.50921v2.63439c0,1.47741,.38093,2.65046,1.1428,3.52102,.76092,.87057,1.80257,1.30538,3.12402,1.30538,1.04166,0,1.87252-.27979,2.49449-.83937,.5252-.47256,.81498-1.09187,.89668-1.84133h.0599l-.04726,2.33096v1.4689c0,.62197-.15502,1.08041-.466,1.37627-.31098,.29492-.79306,.44237-1.44527,.44237h-4.01066v2.05212h4.01066c1.30538,0,2.33096-.34596,3.07771-1.03787,.7458-.69192,1.11917-1.62771,1.11917-2.80926V5.73258h-2.28559Zm-2.6807,10.02617c-.85544,0-1.51617-.25238-1.98217-.75808-.466-.50476-.69948-1.23165-.69948-2.17973v-2.40091c0-.93343,.23347-1.65228,.69948-2.15751,.466-.50476,1.12673-.75761,1.98217-.75761,.83937,0,1.49537,.25663,1.96988,.76943,.47357,.51279,.71082,1.22787,.71082,2.1457v2.40091c0,.91688-.23726,1.63621-.71082,2.15704-.47451,.52083-1.13051,.78077-1.96988,.78077Z" style="fill:#fff;"/><path d="M295.80129,18.79014c-1.02559,0-1.92357-.20228-2.69299-.60684-.76943-.40362-1.36398-.97927-1.78367-1.72507s-.62953-1.6088-.62953-2.58807v-3.45013c0-.99534,.20984-1.86212,.62953-2.60036s1.01424-1.30963,1.78367-1.71372,1.66741-.60637,2.69299-.60637,1.92357,.20228,2.69299,.60637,1.36398,.97549,1.78367,1.71372,.62953,1.60502,.62953,2.60036v2.28465h-7.97405v1.16548c0,.97927,.2486,1.72507,.7458,2.23833s1.20518,.76943,2.12207,.76943c.77699,0,1.40274-.13611,1.87725-.40834,.47357-.27128,.7647-.67207,.87435-1.20046h2.28465c-.15502,1.07285-.6957,1.92735-1.62014,2.56444-.92539,.63804-2.06346,.95658-3.4161,.95658Zm2.86786-7.55437v-.81574c0-.97974-.24482-1.72979-.73445-2.25062s-1.20046-.78124-2.13341-.78124c-.91688,0-1.62487,.26467-2.12207,.79306s-.7458,1.27466-.7458,2.2388v.62859h5.89925l-.16353,.18716Z" style="fill:#fff;"/></g><g><path d="M0,18.79752V1.13717H5.4675c1.04818,0,1.9674,.21381,2.75787,.64103,.79007,.42762,1.40315,1.02022,1.83864,1.7782,.43549,.75818,.65324,1.64511,.65324,2.661,0,1.19387-.31067,2.21783-.93143,3.07248-.62115,.85504-1.46359,1.44351-2.52811,1.766l3.7015,7.74164h-2.56453l-3.38689-7.49967H2.17727v7.49967H0ZM2.17727,9.33832h3.29022c.90308,0,1.62877-.28626,2.17727-.85878,.54811-.57232,.82256-1.32656,.82256-2.26213,0-.95131-.27445-1.70929-.82256-2.27394-.5485-.56445-1.27419-.84677-2.17727-.84677H2.17727v6.24162Z" style="fill:#fff;"/><path d="M13.05557,18.79752v-1.98374h4.71739V7.47546h-4.11258v-1.98374h6.29005v11.32206h4.47543v1.98374H13.05557ZM18.61974,3.09669c-.53216,0-.95171-.13683-1.25805-.41128-.30654-.27405-.45951-.64497-.45951-1.11275,0-.48393,.15297-.86685,.45951-1.14937,.30634-.28193,.72589-.42329,1.25805-.42329,.53236,0,.95151,.14136,1.25805,.42329,.30615,.28252,.45971,.66545,.45971,1.14937,0,.46778-.15356,.8387-.45971,1.11275-.30654,.27445-.72569,.41128-1.25805,.41128Z" style="fill:#fff;"/><path d="M27.90942,18.79752l-4.45141-13.3058h2.22571l2.95159,8.95125c.17719,.53216,.33863,1.04424,.48373,1.53604,.1453,.49219,.24984,.87532,.31461,1.14937,.08052-.27405,.19353-.65718,.33863-1.14937,.1451-.4918,.29827-1.00388,.45971-1.53604l2.87895-8.95125h2.20149l-4.45141,13.3058h-2.95159Z" style="fill:#fff;"/><path d="M42.2069,19.03948c-1.04857,0-1.96366-.20987-2.74586-.62903-.78239-.41935-1.3872-1.01195-1.81443-1.7782-.42742-.76586-.64103-1.65712-.64103-2.67321v-3.62886c0-1.03203,.21361-1.92704,.64103-2.68542,.42723-.75798,1.03203-1.34625,1.81443-1.766,.7822-.41915,1.69729-.62903,2.74586-.62903,1.04818,0,1.96327,.20987,2.74586,.62903,.782,.41974,1.38681,1.00802,1.81443,1.766,.42703,.75837,.64103,1.65338,.64103,2.68542v2.34679h-8.2738v1.28207c0,1.04857,.26618,1.85065,.79834,2.40703,.53236,.55657,1.29014,.83476,2.27414,.83476,.8385,0,1.51576-.14884,2.03217-.4477,.51602-.29807,.83043-.74577,.94344-1.34251h2.17727c-.1451,1.11295-.68947,1.99575-1.63291,2.64899s-2.11683,.97986-3.51998,.97986Zm3.07248-7.81428v-.89501c0-1.04818-.26244-1.85459-.78633-2.41924-.52429-.56425-1.2864-.84677-2.28615-.84677-.984,0-1.74178,.28252-2.27414,.84677-.53216,.56465-.79834,1.37106-.79834,2.41924v.70167h6.31427l-.16932,.19333Z" style="fill:#fff;"/><path d="M59.44377,6.56826c-.83104-.8789-1.94749-1.31849-3.35064-1.31849-1.22598,0-2.14936,.36717-2.77009,1.10073-.34554,.4084-.58469,.93667-.73794,1.56195v-2.42076h-2.1288v13.3058h2.17724V10.3302c0-1.03209,.26189-1.83022,.78615-2.39506,.52408-.56443,1.24606-.84676,2.16525-.84676,.9352,0,1.65736,.2782,2.16531,.83477,.50789,.55639,.7621,1.35884,.7621,2.40706v.60478h2.17724v-.79832c0-1.50004-.41537-2.68915-1.24583-3.5684Z" style="fill:#fff;"/><path d="M66.95525,18.99105c-.90347,0-1.68961-.14136-2.3588-.42348-.66939-.28193-1.20155-.681-1.59668-1.19741-.39533-.51582-.63316-1.1287-.71368-1.83864h2.17727c.09686,.46798,.35871,.8389,.78633,1.11295,.42723,.27445,.99561,.41108,1.70555,.41108h1.01609c.85465,0,1.49155-.17286,1.91129-.52015,.41915-.34651,.62883-.81035,.62883-1.39094,0-.56445-.18959-1.01176-.56839-1.34251-.37919-.33056-.9397-.55244-1.68134-.66545l-1.79041-.2902c-1.30629-.22562-2.27808-.63277-2.91517-1.22182-.63729-.58867-.95545-1.44745-.95545-2.57635,0-1.19347,.3786-2.11683,1.13697-2.77007,.75798-.65324,1.89495-.97986,3.41111-.97986h.91942c1.2738,0,2.29816,.29866,3.07228,.8952,.77412,.59674,1.24171,1.40295,1.40315,2.41924h-2.17727c-.09667-.41935-.33863-.75385-.72569-1.00408-.38706-.24984-.91135-.37486-1.57246-.37486h-.91942c-.82256,0-1.42362,.15337-1.80222,.45951-.37919,.30654-.56858,.76625-.56858,1.37893,0,.5485,.16105,.95191,.48373,1.20962,.32249,.2583,.83063,.44376,1.52423,.55638l1.79021,.2904c1.43524,.22602,2.47968,.64517,3.13292,1.25805,.65324,.61308,.97986,1.50001,.97986,2.6612,0,1.22576-.39139,2.18928-1.17339,2.89096-.78239,.70167-1.96366,1.05231-3.5442,1.05231h-1.01609Z" style="fill:#fff;"/><path d="M79.80134,19.03948c-1.06452,0-1.99595-.2018-2.79429-.60481s-1.41536-.98774-1.85065-1.75399c-.43549-.76586-.65324-1.67307-.65324-2.72164v-3.62886c0-1.06432,.21775-1.97547,.65324-2.73385,.4353-.75778,1.05231-1.33838,1.85065-1.74178,.79834-.40301,1.72977-.60481,2.79429-.60481,1.53191,0,2.76574,.41128,3.70131,1.23383,.93517,.82256,1.42737,1.94358,1.4758,3.36268h-2.17727c-.04843-.85445-.33489-1.51202-.85898-1.97154-.52429-.45971-1.23797-.68947-2.14085-.68947-.95191,0-1.70989,.27012-2.27414,.81035-.56484,.54063-.84677,1.31042-.84677,2.31036v3.65307c0,1.00014,.28193,1.77426,.84677,2.32237,.56425,.5485,1.32223,.82256,2.27414,.82256,.90288,0,1.61657-.2335,2.14085-.70148,.52409-.46759,.81055-1.12083,.85898-1.95953h2.17727c-.04843,1.41929-.54063,2.54012-1.4758,3.36268-.93556,.82256-2.1694,1.23383-3.70131,1.23383Z" style="fill:#fff;"/><path d="M96.27591,6.43516c-.88717-.78987-2.09678-1.18539-3.6289-1.18539-1.40315,0-2.57259,.33881-3.50773,1.01608-.93561,.67744-1.47582,1.58877-1.62091,2.73381h2.17724c.08052-.56443,.38708-1.01194,.91925-1.34271,.53235-.33036,1.19349-.49613,1.98394-.49613,.90306,0,1.60041,.22213,2.09259,.66545,.49182,.44379,.73794,1.07657,.73794,1.89911v1.33049h-4.1128c-1.37107,0-2.45958,.35517-3.26599,1.06452-.80665,.70994-1.20961,1.68548-1.20961,2.92741,0,1.22574,.40297,2.19751,1.20961,2.91495,.80641,.71785,1.91128,1.07675,3.31443,1.07675,1.24169,0,2.23774-.28215,2.98761-.84676,.65115-.48981,1.00201-1.14132,1.08785-1.93532h.0371v2.5401h2.12904V9.65293c0-1.35494-.44373-2.42732-1.33066-3.21778Zm-1.83849,10.11243c-.66149,.5164-1.50825,.77409-2.54028,.77409-.90347,0-1.60868-.21339-2.11687-.64099-.50795-.42725-.7621-1.01194-.7621-1.75401,0-.69322,.20949-1.24169,.62906-1.6449,.41933-.4032,.99185-.60484,1.71774-.60484h4.06436v1.88688c0,.80682-.33078,1.46796-.99191,1.98377Z" style="fill:#fff;"/><path d="M109.35173,6.56826c-.79832-.8789-1.86697-1.31849-3.20555-1.31849-1.09701,0-1.97998,.2945-2.64898,.88297-.55178,.48538-.86295,1.12383-.95995,1.89911h-.04413v-2.54016h-2.1773V23.15204h2.1773v-3.87059l-.04844-3.02406h.09376c.09925,.76269,.41413,1.39671,.97076,1.88688,.67744,.59692,1.55634,.8952,2.63699,.8952,.90306,0,1.68135-.20181,2.33457-.60484,.65322-.40297,1.16117-.97549,1.52402-1.71774,.36303-.74142,.5444-1.62067,.5444-2.63699v-3.89504c0-1.53188-.39907-2.73736-1.19744-3.61661Zm-.97986,7.39078c0,1.03244-.26225,1.82266-.78632,2.37078-.52425,.54854-1.24583,.8226-2.16507,.8226-.88735,0-1.59669-.28198-2.12904-.84658-.53217-.56449-.79832-1.34667-.79832-2.3468v-3.62884c0-.99977,.26614-1.78196,.79832-2.3468,.53235-.56425,1.24169-.84658,2.12904-.84658,.91925,0,1.64082,.27442,2.16507,.82254,.52408,.54854,.78632,1.33876,.78632,2.37084v3.62884Z" style="fill:#fff;"/><path d="M118.16971,19.03948c-1.04857,0-1.96366-.20987-2.74586-.62903-.78239-.41935-1.3872-1.01195-1.81443-1.7782-.42742-.76586-.64103-1.65712-.64103-2.67321v-3.62886c0-1.03203,.21361-1.92704,.64103-2.68542,.42723-.75798,1.03203-1.34625,1.81443-1.766,.7822-.41915,1.69729-.62903,2.74586-.62903,1.04818,0,1.96327,.20987,2.74586,.62903,.782,.41974,1.38681,1.00802,1.81443,1.766,.42703,.75837,.64103,1.65338,.64103,2.68542v2.34679h-8.2738v1.28207c0,1.04857,.26618,1.85065,.79834,2.40703,.53236,.55657,1.29014,.83476,2.27414,.83476,.8385,0,1.51576-.14884,2.03217-.4477,.51602-.29807,.83043-.74577,.94344-1.34251h2.17727c-.1451,1.11295-.68947,1.99575-1.63291,2.64899s-2.11683,.97986-3.51998,.97986Zm3.07248-7.81428v-.89501c0-1.04818-.26244-1.85459-.78633-2.41924-.52429-.56425-1.2864-.84677-2.28615-.84677-.984,0-1.74178,.28252-2.27414,.84677-.53216,.56465-.79834,1.37106-.79834,2.41924v.70167h6.31427l-.16932,.19333Z" style="fill:#fff;"/><path d="M129.61246,18.99105c-.90347,0-1.68961-.14136-2.3588-.42348-.66939-.28193-1.20155-.681-1.59668-1.19741-.39533-.51582-.63316-1.1287-.71368-1.83864h2.17727c.09686,.46798,.35871,.8389,.78633,1.11295,.42723,.27445,.99561,.41108,1.70555,.41108h1.01609c.85465,0,1.49155-.17286,1.91129-.52015,.41915-.34651,.62883-.81035,.62883-1.39094,0-.56445-.18959-1.01176-.56839-1.34251-.37919-.33056-.9397-.55244-1.68134-.66545l-1.79041-.2902c-1.30629-.22562-2.27808-.63277-2.91517-1.22182-.63729-.58867-.95545-1.44745-.95545-2.57635,0-1.19347,.3786-2.11683,1.13697-2.77007,.75798-.65324,1.89495-.97986,3.41111-.97986h.91942c1.2738,0,2.29816,.29866,3.07228,.8952,.77412,.59674,1.24171,1.40295,1.40315,2.41924h-2.17727c-.09667-.41935-.33863-.75385-.72569-1.00408-.38706-.24984-.91135-.37486-1.57246-.37486h-.91942c-.82256,0-1.42362,.15337-1.80222,.45951-.37919,.30654-.56858,.76625-.56858,1.37893,0,.5485,.16105,.95191,.48373,1.20962,.32249,.2583,.83063,.44376,1.52423,.55638l1.79021,.2904c1.43524,.22602,2.47968,.64517,3.13292,1.25805,.65324,.61308,.97986,1.50001,.97986,2.6612,0,1.22576-.39139,2.18928-1.17339,2.89096-.78239,.70167-1.96366,1.05231-3.5442,1.05231h-1.01609Z" style="fill:#fff;"/></g></svg>